<svg width="427" height="273" viewBox="0 0 427 273" fill="none" xmlns="http://www.w3.org/2000/svg">
<rect x="105.221" y="154.752" width="122.163" height="10" rx="5" transform="rotate(44.4005 105.221 154.752)" fill="#D1008F"/>
<rect x="179" y="240.053" width="339.487" height="10" rx="5" transform="rotate(-45 179 240.053)" fill="#D1008F"/>
<rect x="18" y="266.375" width="141.095" height="10" rx="5" transform="rotate(-52.2676 18 266.375)" fill="#D1008F"/>
<rect x="414" y="60" width="57" height="10" rx="5" transform="rotate(-90 414 60)" fill="#D1008F"/>
<rect x="366" y="2" width="57" height="10" rx="5" fill="#D1008F"/>
<path d="M38.9684 219.051L11.3587 197.689L13.9455 194.345L26.2405 203.858L37.6309 189.137L25.336 179.624L27.9228 176.28L55.5325 197.643L52.9457 200.986L40.5968 191.431L29.2064 206.153L41.5552 215.708L38.9684 219.051ZM60.3776 191.381L39.6704 175.359L42.132 172.177L62.8393 188.199L60.3776 191.381ZM37.4708 171.071C36.991 171.691 36.3661 172.062 35.596 172.185C34.8328 172.298 34.1546 172.126 33.5615 171.667C32.9683 171.208 32.6309 170.595 32.5492 169.828C32.4745 169.051 32.677 168.353 33.1568 167.733C33.6366 167.113 34.2581 166.746 35.0213 166.632C35.7914 166.51 36.473 166.678 37.0662 167.137C37.6594 167.596 37.9933 168.214 38.0681 168.99C38.1497 169.757 37.9507 170.451 37.4708 171.071ZM67.2449 174.706L68.534 176.048C69.4404 176.993 70.356 178.076 71.281 179.294C72.213 180.504 73.0671 181.675 73.8434 182.807C74.6196 183.939 75.2299 184.849 75.6742 185.538L73.7966 187.965C73.3118 187.403 72.6706 186.662 71.8729 185.743C71.0753 184.825 70.1653 183.819 69.1429 182.726C68.1365 181.631 67.0753 180.552 65.9594 179.487L64.5746 178.157L67.2449 174.706Z" fill="black"/>
<path d="M164.861 141.839L140.436 166.781L137.416 163.823L161.841 138.882L164.861 141.839ZM173.06 149.869L170.914 152.061C170.262 152.727 169.444 153.318 168.461 153.834C167.494 154.351 166.434 154.735 165.279 154.989C164.141 155.242 162.992 155.31 161.834 155.193L161.515 152.4C162.742 152.171 163.928 151.845 165.073 151.423C166.234 151.001 167.255 150.339 168.138 149.438L170.332 147.197L173.06 149.869ZM151.696 177.807L170.014 159.101L172.791 161.82L169.928 164.743L170.172 164.981C171.54 164.364 172.928 164.205 174.338 164.504C175.755 164.794 177.072 165.536 178.29 166.728C179.524 167.937 180.277 169.223 180.549 170.586C180.836 171.949 180.722 173.356 180.207 174.808L180.402 174.999C181.827 174.502 183.297 174.438 184.812 174.808C186.334 175.17 187.765 176.007 189.105 177.319C190.777 178.956 191.633 180.82 191.671 182.909C191.716 184.989 190.662 187.13 188.507 189.33L176.247 201.85L173.373 199.035L185.633 186.516C186.985 185.135 187.573 183.779 187.399 182.447C187.224 181.115 186.625 179.948 185.602 178.946C184.287 177.658 182.878 177.058 181.377 177.146C179.883 177.226 178.544 177.871 177.359 179.081L165.433 191.259L162.51 188.397L175.056 175.585C176.098 174.522 176.592 173.327 176.537 172.002C176.491 170.668 175.924 169.469 174.836 168.404C174.089 167.672 173.196 167.187 172.157 166.949C171.126 166.719 170.066 166.762 168.977 167.079C167.903 167.395 166.917 168.012 166.019 168.93L154.57 180.621L151.696 177.807Z" fill="black"/>
<path d="M207.825 146.678L210.814 143.689L228.46 161.335C230.035 162.909 231.083 164.537 231.606 166.216C232.128 167.895 232.148 169.547 231.666 171.17C231.184 172.793 230.228 174.32 228.797 175.75C227.447 177.1 226.001 178.056 224.458 178.618C222.907 179.173 221.373 179.293 219.854 178.98C218.335 178.667 216.945 177.879 215.684 176.618L218.625 173.677C219.324 174.376 220.107 174.814 220.975 174.991C221.843 175.151 222.727 175.071 223.627 174.749C224.527 174.428 225.366 173.878 226.146 173.098C227.005 172.238 227.556 171.326 227.797 170.362C228.038 169.398 227.966 168.41 227.58 167.397C227.194 166.369 226.491 165.344 225.471 164.324L207.825 146.678ZM246.985 157.755C245.812 158.928 244.526 159.772 243.128 160.286C241.722 160.792 240.316 160.905 238.91 160.623C237.496 160.334 236.186 159.587 234.98 158.382C233.92 157.321 233.269 156.252 233.028 155.175C232.779 154.091 232.815 153.01 233.136 151.933C233.458 150.857 233.948 149.804 234.607 148.775C235.266 147.731 235.969 146.722 236.716 145.75C237.696 144.481 238.5 143.46 239.127 142.689C239.753 141.901 240.135 141.254 240.272 140.748C240.416 140.234 240.26 139.748 239.802 139.29L239.705 139.193C238.516 138.004 237.267 137.405 235.957 137.397C234.655 137.381 233.349 138.028 232.04 139.338C230.682 140.696 229.914 142.058 229.737 143.424C229.561 144.79 229.653 145.967 230.015 146.955L226.351 148.691C225.708 147.084 225.475 145.565 225.651 144.135C225.828 142.689 226.27 141.363 226.977 140.158C227.684 138.936 228.504 137.859 229.436 136.927C230.031 136.333 230.786 135.722 231.702 135.095C232.618 134.452 233.655 133.986 234.812 133.697C235.977 133.4 237.238 133.448 238.596 133.842C239.954 134.235 241.369 135.168 242.839 136.638L255.037 148.836L252.192 151.68L249.685 149.173L249.54 149.318C249.749 149.912 249.858 150.664 249.866 151.572C249.874 152.48 249.665 153.468 249.239 154.537C248.813 155.605 248.062 156.678 246.985 157.755ZM244.864 154.766C245.989 153.641 246.716 152.472 247.045 151.258C247.383 150.037 247.399 148.88 247.094 147.787C246.796 146.686 246.262 145.75 245.491 144.979L242.887 142.375C242.911 142.64 242.779 143.038 242.489 143.568C242.2 144.083 241.835 144.649 241.393 145.268C240.951 145.871 240.513 146.453 240.079 147.016C239.645 147.562 239.295 148.008 239.03 148.354C238.387 149.189 237.853 150.037 237.427 150.897C237.001 151.74 236.804 152.572 236.837 153.392C236.869 154.195 237.246 154.959 237.97 155.682C238.958 156.67 240.071 157.052 241.308 156.827C242.546 156.586 243.731 155.899 244.864 154.766ZM258.975 116.163L257.143 119.441C256.556 119.176 255.905 119 255.19 118.911C254.475 118.807 253.72 118.887 252.924 119.152C252.129 119.417 251.317 119.964 250.49 120.791C249.357 121.924 248.674 123.13 248.441 124.407C248.208 125.669 248.489 126.697 249.284 127.493C249.991 128.2 250.807 128.501 251.731 128.397C252.655 128.292 253.8 127.83 255.166 127.011L258.589 124.938C260.646 123.684 262.494 123.065 264.134 123.081C265.765 123.09 267.227 123.74 268.521 125.034C269.582 126.095 270.224 127.348 270.449 128.795C270.682 130.233 270.498 131.736 269.895 133.302C269.292 134.869 268.272 136.372 266.833 137.81C264.945 139.698 262.972 140.852 260.915 141.269C258.858 141.687 256.878 141.273 254.973 140.028L256.998 136.653C258.252 137.392 259.485 137.654 260.698 137.437C261.92 137.212 263.113 136.517 264.278 135.351C265.604 134.026 266.375 132.692 266.592 131.35C266.809 129.992 266.52 128.915 265.725 128.12C265.082 127.477 264.318 127.163 263.435 127.179C262.543 127.188 261.522 127.549 260.373 128.264L256.564 130.627C254.467 131.92 252.599 132.543 250.96 132.495C249.32 132.431 247.862 131.76 246.584 130.482C245.54 129.437 244.909 128.22 244.692 126.83C244.483 125.432 244.66 123.993 245.222 122.515C245.793 121.028 246.729 119.634 248.031 118.333C249.863 116.501 251.703 115.464 253.551 115.223C255.407 114.974 257.215 115.287 258.975 116.163ZM277.961 125.911L259.448 107.398L262.196 104.649L265.089 107.542L265.33 107.301C264.727 105.927 264.583 104.537 264.896 103.131C265.201 101.717 265.957 100.407 267.162 99.2016C268.383 97.9802 269.677 97.2409 271.043 96.9838C272.409 96.7106 273.815 96.8392 275.261 97.3695L275.454 97.1767C274.972 95.7464 274.924 94.2759 275.31 92.7653C275.687 91.2466 276.539 89.8244 277.865 88.4985C279.52 86.8433 281.392 86.0076 283.482 85.9915C285.563 85.9674 287.692 87.0441 289.87 89.2217L302.26 101.612L299.416 104.457L287.025 92.0662C285.659 90.7002 284.309 90.0976 282.975 90.2583C281.641 90.419 280.468 91.0056 279.456 92.018C278.154 93.3197 277.539 94.7219 277.612 96.2245C277.676 97.719 278.307 99.065 279.504 100.262L291.557 112.315L288.664 115.208L275.985 102.528C274.932 101.476 273.743 100.969 272.417 101.01C271.083 101.042 269.878 101.596 268.801 102.673C268.062 103.412 267.568 104.3 267.319 105.337C267.078 106.365 267.11 107.426 267.415 108.518C267.72 109.595 268.327 110.588 269.235 111.496L280.806 123.066L277.961 125.911ZM307.461 96.4113L288.948 77.898L291.792 75.0535L310.305 93.5668L307.461 96.4113ZM287.308 73.3661C286.754 73.9205 286.087 74.2098 285.308 74.2339C284.536 74.2499 283.885 73.9928 283.355 73.4625C282.825 72.9321 282.568 72.2813 282.584 71.5099C282.608 70.7305 282.897 70.0635 283.451 69.5091C284.006 68.9547 284.669 68.6694 285.44 68.6533C286.22 68.6292 286.874 68.8824 287.405 69.4127C287.935 69.943 288.188 70.5979 288.164 71.3773C288.148 72.1487 287.863 72.8116 287.308 73.3661ZM307.223 74.3755L318.36 85.5124L315.515 88.3569L297.002 69.8436L299.75 67.0955L302.643 69.9882L302.884 69.7472C302.378 68.3731 302.281 66.9589 302.595 65.5045C302.9 64.0421 303.752 62.6118 305.15 61.2137C306.403 59.9602 307.757 59.1205 309.212 58.6946C310.658 58.2607 312.161 58.3009 313.719 58.8151C315.27 59.3213 316.833 60.3619 318.408 61.9368L330.172 73.7005L327.327 76.545L315.756 64.9742C314.302 63.5198 312.791 62.7645 311.224 62.7082C309.65 62.6439 308.203 63.2707 306.885 64.5885C305.977 65.4965 305.363 66.5049 305.041 67.6138C304.728 68.7146 304.744 69.8476 305.09 71.0127C305.435 72.1778 306.146 73.2988 307.223 74.3755ZM343.517 61.1263C341.734 62.9101 339.801 64.0551 337.72 64.5614C335.639 65.0515 333.538 64.935 331.416 64.2118C329.295 63.4726 327.286 62.1548 325.39 60.2585C323.493 58.3621 322.168 56.3453 321.412 54.2079C320.657 52.0544 320.496 49.9492 320.93 47.8921C321.364 45.819 322.417 43.9468 324.088 42.2755C325.052 41.3112 326.165 40.5197 327.427 39.901C328.688 39.2823 330.066 38.9488 331.561 38.9006C333.047 38.8444 334.61 39.1778 336.249 39.901C337.889 40.6242 339.572 41.8496 341.3 43.5772L342.505 44.7825L328.234 59.0532L325.775 56.5944L337.153 45.2164C336.109 44.1718 334.968 43.4486 333.73 43.0468C332.501 42.637 331.268 42.5768 330.03 42.866C328.801 43.1473 327.672 43.8022 326.643 44.8307C325.51 45.9637 324.811 47.2252 324.546 48.6153C324.281 49.9893 324.373 51.3433 324.823 52.6772C325.273 54.011 326.008 55.1882 327.029 56.2087L328.668 57.8479C330.066 59.246 331.493 60.1902 332.947 60.6803C334.401 61.1544 335.816 61.2106 337.19 60.8491C338.556 60.4794 339.813 59.7201 340.962 58.571C341.709 57.8238 342.28 57.0443 342.674 56.2328C343.067 55.4051 343.272 54.5574 343.288 53.6896C343.296 52.8138 343.1 51.9339 342.698 51.05L346.217 49.0733C346.86 50.2947 347.194 51.6004 347.218 52.9905C347.234 54.3726 346.936 55.7627 346.326 57.1609C345.707 58.551 344.771 59.8728 343.517 61.1263ZM334.2 20.3029L351.701 38.2859L348.905 41.0822L330.922 23.5813L334.2 20.3029ZM357.439 46.8194C356.844 47.414 356.121 47.7113 355.269 47.7113C354.417 47.7113 353.694 47.414 353.099 46.8194C352.505 46.2248 352.208 45.5016 352.208 44.6499C352.208 43.7981 352.505 43.075 353.099 42.4804C353.694 41.8857 354.417 41.5884 355.269 41.5884C356.121 41.5884 356.844 41.8857 357.439 42.4804C357.832 42.8741 358.093 43.3361 358.222 43.8664C358.359 44.3887 358.363 44.915 358.234 45.4454C358.105 45.9596 357.84 46.4177 357.439 46.8194Z" fill="black"/>
</svg>
