<svg width="800" height="600" viewBox="0 0 800 600" fill="none" xmlns="http://www.w3.org/2000/svg">
<rect width="800" height="600" fill="#E6E6E6"/>
<circle cx="317" cy="208" r="18" stroke="#D1008F" stroke-width="4"/>
<circle cx="317" cy="208" r="10.5" fill="#D1008F" stroke="#D1008F"/>
<circle cx="317" cy="300" r="18" stroke="#7D7D7D" stroke-width="4"/>
<circle cx="317" cy="392" r="18" stroke="#7D7D7D" stroke-width="4"/>
<path d="M424.261 207.909C424.261 210.67 423.763 213.057 422.766 215.068C421.768 217.08 420.401 218.631 418.662 219.722C416.923 220.812 414.938 221.358 412.705 221.358C410.472 221.358 408.486 220.812 406.747 219.722C405.009 218.631 403.641 217.08 402.643 215.068C401.646 213.057 401.148 210.67 401.148 207.909C401.148 205.148 401.646 202.761 402.643 200.75C403.641 198.739 405.009 197.188 406.747 196.097C408.486 195.006 410.472 194.46 412.705 194.46C414.938 194.46 416.923 195.006 418.662 196.097C420.401 197.188 421.768 198.739 422.766 200.75C423.763 202.761 424.261 205.148 424.261 207.909ZM421.193 207.909C421.193 205.642 420.814 203.729 420.055 202.169C419.305 200.609 418.287 199.429 417 198.628C415.722 197.827 414.29 197.426 412.705 197.426C411.119 197.426 409.683 197.827 408.396 198.628C407.118 199.429 406.099 200.609 405.341 202.169C404.591 203.729 404.216 205.642 404.216 207.909C404.216 210.176 404.591 212.089 405.341 213.649C406.099 215.209 407.118 216.389 408.396 217.19C409.683 217.991 411.119 218.392 412.705 218.392C414.29 218.392 415.722 217.991 417 217.19C418.287 216.389 419.305 215.209 420.055 213.649C420.814 212.089 421.193 210.176 421.193 207.909ZM432.2 209.188V221H429.183V201.364H432.098V204.432H432.354C432.814 203.435 433.513 202.634 434.45 202.028C435.388 201.415 436.598 201.108 438.081 201.108C439.411 201.108 440.574 201.381 441.571 201.926C442.568 202.463 443.344 203.281 443.898 204.381C444.452 205.472 444.729 206.852 444.729 208.523V221H441.712V208.727C441.712 207.185 441.311 205.983 440.51 205.122C439.709 204.253 438.609 203.818 437.212 203.818C436.249 203.818 435.388 204.027 434.629 204.445C433.879 204.862 433.287 205.472 432.852 206.273C432.418 207.074 432.2 208.045 432.2 209.188ZM458.475 221.409C456.583 221.409 454.951 220.991 453.578 220.156C452.215 219.312 451.162 218.136 450.421 216.628C449.688 215.111 449.321 213.347 449.321 211.335C449.321 209.324 449.688 207.551 450.421 206.017C451.162 204.474 452.194 203.273 453.515 202.412C454.844 201.543 456.395 201.108 458.168 201.108C459.191 201.108 460.201 201.278 461.198 201.619C462.195 201.96 463.103 202.514 463.921 203.281C464.739 204.04 465.391 205.045 465.877 206.298C466.363 207.551 466.605 209.094 466.605 210.926V212.205H451.469V209.597H463.537C463.537 208.489 463.316 207.5 462.873 206.631C462.438 205.761 461.816 205.075 461.006 204.572C460.205 204.07 459.259 203.818 458.168 203.818C456.966 203.818 455.926 204.116 455.049 204.713C454.179 205.301 453.51 206.068 453.042 207.014C452.573 207.96 452.338 208.974 452.338 210.057V211.795C452.338 213.278 452.594 214.536 453.105 215.567C453.625 216.589 454.346 217.369 455.266 217.906C456.186 218.435 457.256 218.699 458.475 218.699C459.267 218.699 459.983 218.588 460.623 218.366C461.27 218.136 461.828 217.795 462.297 217.344C462.766 216.884 463.128 216.312 463.384 215.631L466.299 216.449C465.992 217.438 465.476 218.307 464.752 219.057C464.027 219.798 463.132 220.378 462.067 220.795C461.002 221.205 459.804 221.409 458.475 221.409Z" fill="black"/>
<path d="M400.739 289.631V286.818H420.375V289.631H412.142V313H408.972V289.631H400.739ZM427.058 313L421.075 293.364H424.245L428.49 308.398H428.694L432.887 293.364H436.109L440.251 308.347H440.456L444.7 293.364H447.87L441.887 313H438.922L434.626 297.915H434.319L430.024 313H427.058ZM459.168 313.409C457.396 313.409 455.84 312.987 454.502 312.143C453.173 311.3 452.133 310.119 451.383 308.602C450.641 307.085 450.271 305.312 450.271 303.284C450.271 301.239 450.641 299.453 451.383 297.928C452.133 296.402 453.173 295.217 454.502 294.374C455.84 293.53 457.396 293.108 459.168 293.108C460.941 293.108 462.492 293.53 463.822 294.374C465.16 295.217 466.2 296.402 466.941 297.928C467.691 299.453 468.066 301.239 468.066 303.284C468.066 305.312 467.691 307.085 466.941 308.602C466.2 310.119 465.16 311.3 463.822 312.143C462.492 312.987 460.941 313.409 459.168 313.409ZM459.168 310.699C460.515 310.699 461.623 310.354 462.492 309.663C463.362 308.973 464.005 308.065 464.423 306.94C464.84 305.815 465.049 304.597 465.049 303.284C465.049 301.972 464.84 300.749 464.423 299.615C464.005 298.482 463.362 297.565 462.492 296.866C461.623 296.168 460.515 295.818 459.168 295.818C457.822 295.818 456.714 296.168 455.844 296.866C454.975 297.565 454.332 298.482 453.914 299.615C453.496 300.749 453.288 301.972 453.288 303.284C453.288 304.597 453.496 305.815 453.914 306.94C454.332 308.065 454.975 308.973 455.844 309.663C456.714 310.354 457.822 310.699 459.168 310.699Z" fill="black"/>
<path d="M400.739 381.631V378.818H420.375V381.631H412.142V405H408.972V381.631H400.739ZM427.876 393.188V405H424.859V378.818H427.876V388.432H428.132C428.592 387.418 429.282 386.612 430.203 386.016C431.132 385.411 432.368 385.108 433.91 385.108C435.248 385.108 436.42 385.376 437.426 385.913C438.431 386.442 439.211 387.256 439.765 388.355C440.328 389.446 440.609 390.835 440.609 392.523V405H437.592V392.727C437.592 391.168 437.187 389.962 436.377 389.109C435.576 388.249 434.464 387.818 433.041 387.818C432.052 387.818 431.166 388.027 430.382 388.445C429.606 388.862 428.993 389.472 428.541 390.273C428.098 391.074 427.876 392.045 427.876 393.188ZM446.129 405V385.364H449.043V388.33H449.248C449.606 387.358 450.254 386.57 451.191 385.964C452.129 385.359 453.185 385.057 454.362 385.057C454.583 385.057 454.86 385.061 455.192 385.07C455.525 385.078 455.776 385.091 455.947 385.108V388.176C455.844 388.151 455.61 388.112 455.244 388.061C454.886 388.001 454.506 387.972 454.106 387.972C453.151 387.972 452.299 388.172 451.549 388.572C450.808 388.964 450.219 389.51 449.785 390.209C449.359 390.899 449.146 391.687 449.146 392.574V405H446.129ZM467.158 405.409C465.266 405.409 463.634 404.991 462.262 404.156C460.898 403.312 459.846 402.136 459.104 400.628C458.371 399.111 458.005 397.347 458.005 395.335C458.005 393.324 458.371 391.551 459.104 390.017C459.846 388.474 460.877 387.273 462.198 386.412C463.528 385.543 465.079 385.108 466.852 385.108C467.874 385.108 468.884 385.278 469.881 385.619C470.879 385.96 471.786 386.514 472.604 387.281C473.423 388.04 474.075 389.045 474.56 390.298C475.046 391.551 475.289 393.094 475.289 394.926V396.205H460.153V393.597H472.221C472.221 392.489 471.999 391.5 471.556 390.631C471.121 389.761 470.499 389.075 469.69 388.572C468.888 388.07 467.942 387.818 466.852 387.818C465.65 387.818 464.61 388.116 463.732 388.713C462.863 389.301 462.194 390.068 461.725 391.014C461.256 391.96 461.022 392.974 461.022 394.057V395.795C461.022 397.278 461.278 398.536 461.789 399.567C462.309 400.589 463.029 401.369 463.95 401.906C464.87 402.435 465.94 402.699 467.158 402.699C467.951 402.699 468.667 402.588 469.306 402.366C469.954 402.136 470.512 401.795 470.981 401.344C471.45 400.884 471.812 400.312 472.067 399.631L474.982 400.449C474.675 401.438 474.16 402.307 473.435 403.057C472.711 403.798 471.816 404.378 470.751 404.795C469.685 405.205 468.488 405.409 467.158 405.409ZM488.112 405.409C486.219 405.409 484.587 404.991 483.215 404.156C481.852 403.312 480.799 402.136 480.058 400.628C479.325 399.111 478.958 397.347 478.958 395.335C478.958 393.324 479.325 391.551 480.058 390.017C480.799 388.474 481.83 387.273 483.151 386.412C484.481 385.543 486.032 385.108 487.805 385.108C488.827 385.108 489.837 385.278 490.835 385.619C491.832 385.96 492.739 386.514 493.558 387.281C494.376 388.04 495.028 389.045 495.513 390.298C495.999 391.551 496.242 393.094 496.242 394.926V396.205H481.106V393.597H493.174C493.174 392.489 492.952 391.5 492.509 390.631C492.075 389.761 491.452 389.075 490.643 388.572C489.842 388.07 488.896 387.818 487.805 387.818C486.603 387.818 485.563 388.116 484.685 388.713C483.816 389.301 483.147 390.068 482.678 391.014C482.21 391.96 481.975 392.974 481.975 394.057V395.795C481.975 397.278 482.231 398.536 482.742 399.567C483.262 400.589 483.982 401.369 484.903 401.906C485.823 402.435 486.893 402.699 488.112 402.699C488.904 402.699 489.62 402.588 490.259 402.366C490.907 402.136 491.465 401.795 491.934 401.344C492.403 400.884 492.765 400.312 493.021 399.631L495.935 400.449C495.629 401.438 495.113 402.307 494.388 403.057C493.664 403.798 492.769 404.378 491.704 404.795C490.638 405.205 489.441 405.409 488.112 405.409Z" fill="black"/>
</svg>
